<mxfile host="app.diagrams.net" modified="2023-05-25T17:00:46.553Z" agent="Mozilla/5.0 (Macintosh; Intel Mac OS X 10_15_7) AppleWebKit/537.36 (KHTML, like Gecko) Chrome/113.0.0.0 Safari/537.36" version="21.3.3" etag="PoIXRhSCEV8Sx1-RMcWx" type="github">
  <diagram name="Page-1" id="vGEPnZ3FHe77KDJQ2PHP">
    <mxGraphModel>
      <root>
        <mxCell id="0" />
        <mxCell id="1" parent="0" />
      </root>
    </mxGraphModel>
  </diagram>
</mxfile>
